PathFileType	4	(X/Y/Z)	/home/abdul/Desktop/myosuite/custom_workspace/IK/output/S13_12_2.trc
DataRate	CameraRate	NumFrames	NumMarkers	Units	OrigDataRate	OrigDataStartFrame	OrigNumFrames
200.0	200.0	67	3	mm	200.0	176	1403
Frame#	Time	V_Shoulder			V_Elbow			V_Wrist		
		X1	Y1	Z1	X2	Y2	Z2	X3	Y3	Z3

176	0.875	-93.06323130048008	609.6551449961979	327.6152402159313	-249.95096195428886	526.5717436275825	15.010193945607924	-231.4562906484009	262.92647271660707	62.28004432081447
177	0.88	-93.01487419063967	609.5893385382755	327.67948344098505	-249.82407935874295	526.0643874692923	15.196216499763066	-230.32833560245263	262.52015289303694	62.64008970190392
178	0.885	-92.9642270745825	609.5229163753571	327.7450080440033	-249.68599659201794	525.5421478382702	15.38495575841257	-229.19306582230428	262.0984061207706	62.990756523292326
179	0.89	-92.91126681643983	609.4558349044187	327.811798839007	-249.53673529649677	525.0052532787925	15.576361110084715	-228.0510944906277	261.661409939245	63.331820518846705
180	0.895	-92.85597204194305	609.3880494006636	327.8798394868117	-249.37633261349856	524.4539576262846	15.770376777004786	-226.9030302727842	261.2093708122657	63.66307686046181
181	0.9	-92.79832316996776	609.3195141215979	327.9491125107923	-249.20484093214714	523.8885394713388	15.96694184825877	-225.74947619336598	260.7425236003517	63.98434011208213
182	0.905	-92.73830244107643	609.2501824141563	328.01959931430366	-249.022327596913	523.3093015498846	16.165990326217248	-224.59102856055037	260.2611309419526	64.2954441245646
183	0.91	-92.67589394302081	609.1800068245748	328.09128019972457	-248.82887457513175	522.71657006182	16.36745118591665	-223.42827594073856	259.7654825465113	64.596241873926
184	0.915	-92.61108363317366	609.108939210695	328.1641343890928	-248.62457808596673	522.1106939206886	16.57124844707369	-222.2617981856556	259.2558944027087	64.88660524570436
185	0.92	-92.54385935786672	609.0369308563801	328.23814004629435	-248.40954819244308	521.492043937265	16.777301258391194	-221.09216551379296	258.73270790556984	65.16642476832351
186	0.925	-92.47421086861931	608.9639325877198	328.3132743007672	-248.1839083583319	520.8610119401596	16.985523993799763	-219.9199376477785	258.1962889064256	65.43560929848758
187	0.93	-92.40212983524977	608.8898948906967	328.3895132726789	-247.94779497180815	520.2180098367978	17.195826360269308	-218.74566300896453	257.6470266900165	65.69408566174292
188	0.935	-92.3276098558693	608.8147680299869	328.46683209953403	-247.70135683793973	519.5634686183441	17.408113516817135	-217.5698779702326	257.085332883289	65.94179825143435
189	0.94	-92.25064646376484	608.7385021685626	328.5452049641644	-247.44475464219101	518.8978373123496	17.62228620433474	-216.39310616772806	256.51164030066917	66.17870858934621
190	0.945	-92.17123713118548	608.6610474877713	328.624605124055	-247.17816038723925	518.2215818870743	17.838240885853047	-215.21585787195676	255.926401730809	66.40479485136164
191	0.95	-92.08938127005348	608.5823543075613	328.70500494195363	-246.90175680550414	517.5351841116111	18.055869896865335	-214.03862941840327	255.33008866997903	66.62005136149277
192	0.955	-92.00508022962804	608.5023732065284	328.7863759177132	-246.61573674988398	516.839140376066	18.275061605327956	-212.8619026975668	254.72319000743167	66.82448805763414
193	0.96	-91.9183372911565	608.4210551414653	328.8686887213093	-246.32030256526951	516.1339604761826	18.495700580961024	-211.68614470405618	254.10621066818118	67.01812993237084
194	0.965	-91.82915765955484	608.3383515660913	328.95191322697923	-246.01566544347287	515.4201663668898	18.71766777347363	-210.51180714414443	253.47967021874166	67.20101645213367
195	0.97	-91.73754845216475	608.2542145486569	329.03601854842174	-245.70204476426244	514.6982908893351	18.94084069934083	-209.33932610095064	252.8441014414288	67.37320095793734
196	0.975	-91.64351868464138	608.1685968881135	329.1209730749976	-245.37966742523238	513.9688764760215	19.16509363676208	-208.16912175620092	252.200048882869	67.53475005086563
197	0.98	-91.54707925403164	608.0814522285532	329.20674450886963	-245.04876716326106	513.2324738387023	19.39029782843262	-207.0015981673169	251.54806738237346	67.68574296538071
198	0.985	-91.44824291910822	607.9927351716306	329.29329990301727	-244.7095838703236	512.4896406437042	19.616321691760177	-205.83714309838973	250.88872058581796	67.82627093343505
199	0.99	-91.34702427803022	607.9024013866822	329.3806057000617	-244.3623629064198	511.74094017934283	19.843031036159015	-204.67612790342406	250.22257945063245	67.95643654225296
200	0.995	-91.24343974340634	607.8104077182775	329.4686277718338	-244.00735441236287	510.9869400200706	20.070289287051516	-203.51890746007905	249.5502207474396	68.07635308852846
201	1.0	-91.1375075148414	607.7167122909398	329.557331459618	-243.64481262514087	510.2282106919521	20.29795771620399	-202.36582015198877	248.87222556379817	68.18614393165791
202	1.005	-91.02924754905179	607.6212746107882	329.6466816150025	-243.27499519851966	509.4653243439971	20.52589567801782	-201.21718789761957	248.18917781539898	68.28594184848833
203	1.01	-90.91868152763892	607.5240556638656	329.7366426412652	-242.89816253149718	508.69885342980274	20.753960851389913	-200.07331622351086	247.50166276993428	68.37588839192281
204	1.015	-90.80583282261512	607.4250180109252	329.8271785352249	-242.5145771071465	507.92936940385204	20.98200948674664	-198.93449437965177	246.81026558871602	68.45613325557693
205	1.02	-90.69072645977872	607.3241258784675	329.91825292948596	-242.1245028443023	507.1574414367053	21.209896657844222	-197.80099549466928	246.1155698909539	68.52683364653235
206	1.025	-90.57338908003938	607.2213452458278	330.00982913500184	-241.72820446444933	506.38363515318656	21.437476517914735	-196.67307676844024	245.41815634542542	68.58815366808308
207	1.03	-90.4538488987976	607.1166439281307	330.101870183886	-241.32594687606286	505.6085113975216	21.664602559721537	-195.55097969969574	244.71860129407386	68.64026371421787
208	1.035	-90.33213566348486	607.0099916549384	330.19433887239444	-240.91799457853568	504.8326250292248	21.89112787907062	-194.4349303461545	244.01747541186225	68.68333987743222
209	1.04	-90.20828060937424	606.9013601444434	330.28719780400746	-240.5046110876973	504.05652375335956	22.116905441305377	-193.32513961470696	243.31534240698986	68.71756337131256
210	1.045	-90.0823164137722	606.7907231730563	330.38040943253264	-240.0860583847948	503.28074698861053	22.34178835029201	-192.22180357917173	242.61275776534532	68.74311996918775
211	1.05	-89.9542771487055	606.6780566402682	330.47393610515786	-239.66259639066016	502.5058247764148	22.565630119381225	-191.1251038231569	241.91026754282802	68.76019945999758
212	1.055	-89.82419823221807	606.5633386286728	330.56774010537447	-239.23448246663781	501.73227673419075	22.788284943809696	-190.0352078055874	241.20840720891772	68.76899512238613
213	1.06	-89.69211637839413	606.4465494590531	330.66178369570116	-238.80197094368805	500.9606110554954	23.009607973981684	-188.95226924649728	240.50770054461424	68.76970321788907
214	1.065	-89.55806954622498	606.3276717404517	330.75602916012843	-238.3653126809191	500.191323559715	23.229455589048314	-187.87642853073535	239.8086585976024	68.76252250395049
215	1.07	-89.42209688743725	606.2066904151543	330.8504388462125	-237.92475465463443	499.42489679367293	23.447685670178906	-186.80781312729593	239.1117786972276	68.74765376737517
216	1.075	-89.28423869340168	606.0835927985413	330.9449752067437	-237.48053957881152	498.66179918730353	23.66415787289658	-185.74653802205614	238.41754353159132	68.72529937869717
217	1.08	-89.14453634124101	605.9583686137638	331.0396008409165	-237.03290555775538	497.9024842653064	23.878733897828777	-184.69270616178312	237.72642028879778	68.69566286782681
218	1.085	-89.0030322392552	605.8310100212252	331.13427853492794	-236.5820857714989	497.1473899164565	24.091277759203248	-183.6464089073616	237.03885986410154	68.65894852122237
219	1.09	-88.85976977178287	605.7015116428603	331.2289713019352	-236.12830819434757	496.3969377220056	24.301656050401515	-182.60772649428972	236.3552961344239	68.61536100072492
220	1.095	-88.71479324361603	605.5698705812173	331.3236424213001	-235.67179534679536	495.6515323443662	24.509738205865457	-181.57672849859122	235.67614530142419	68.56510498408957
221	1.1	-88.56814782408527	605.436086433362	331.41825547705344	-235.21276408086848	494.9115609770312	24.71539675863844	-180.55347430640072	235.0018053040289	68.50838482714843
222	1.105	-88.4198794909309	605.3001612996394	331.51277439551137	-234.75142539878618	494.1773928564371	24.918507592811288	-179.53801358558795	234.33265530104285	68.44540424744662
223	1.11	-88.27003497407368	605.1620997873384	331.6071634819794	-234.2879843046663	493.44937883624436	25.118950190134786	-178.5303867579023	233.66905522418747	68.37636602910463
224	1.115	-88.11866169939874	605.0219090093173	331.70138745647927	-233.82263968884425	492.7278510242665	25.316607870055563	-177.5306254702345	233.0113454016392	68.30147174857696
225	1.12	-87.96580773266227	604.8795985776638	331.7954114884387	-233.3555842442213	492.0131224820518	25.511368022430556	-176.53875306370884	232.35984625186921	68.22092152089935
226	1.125	-87.81152172363026	604.7351805924726	331.8892012302836	-232.8870044139135	491.3054869868917	25.703122332177504	-175.55478503943687	231.71485804732356	68.13491376594335
227	1.13	-87.6558528505554	604.5886696258324	331.9827228498764	-232.4170803693322	490.6052188558051	25.89176699512498	-174.578729519879	231.07666074722337	68.04364499412927
228	1.135	-87.49885076509577	604.4400827011319	332.07594306174656	-231.94598601769758	489.9125728308347	26.077202924335687	-173.61058770487466	230.445513898515	67.94730961098563
229	1.14	-87.34056553777641	604.2894392677977	332.16882915706043	-231.47388903786248	489.22778402477775	26.259335946190976	-172.6503543215125	229.8216566037563	67.84609973988495
230	1.145	-87.1810476040922	604.1367611715906	332.2613490322828	-231.00095094321318	488.55106792627396	26.438076985542956	-171.69801806712115	229.20530755449238	67.74020506223246
231	1.15	-87.02034771134636	603.9820726205945	332.35347121648243	-230.52732717030642	487.88262046297564	26.61334223926311	-170.75356204476174	228.59666512844987	67.62981267433672
232	1.155	-86.85851686631747	603.8254001470427	332.44516489724157	-230.0531671918103	487.22261812134326	26.78505333754314	-169.8169641907047	227.99590754866614	67.51510696014749
233	1.16	-86.69560628384225	603.6667725651296	332.5363999451263	-229.57861465223152	486.5712181214295	26.953137492334495	-168.8881976934633	227.40319310246574	67.39626947900868
234	1.165	-86.53166733639932	603.5062209249695	332.6271469366845	-229.1038075248386	485.92855864485006	27.11752763234768	-167.9672314040443	226.81866041800964	67.27347886754097
235	1.17	-86.36675150477504	603.3437784628671	332.7173771759365	-228.62887828812714	485.2947591139827	27.278162524071035	-167.054030237154	226.2424287959633	67.1469107547418
236	1.175	-86.200910329888	603.1794805480691	332.80706271433	-228.15395412012197	484.6699205202915	27.434986878310553	-166.14855556317133	225.67459859366755	67.01673768936737
237	1.18	-86.03419536584568	603.0133646261743	332.89617636913357	-227.67915710876912	484.05412579953503	27.587951441798047	-165.2507655907648	225.11525165904652	66.88312907864551
238	1.185	-85.86665813430206	602.845470159387	332.98469174024626	-227.2046044766405	483.4474402514992	27.737013073463206	-164.36061574008409	224.56445181135194	66.74625113735655
239	1.19	-85.6983500801807	602.6758385637949	333.0725832254058	-226.7304088181528	482.84991200177967	27.882134805016687	-163.47805900651008	224.02224536572413	66.60626684631406
240	1.195	-85.52932252882391	602.5045131438651	333.1598260337809	-226.2566783474951	482.2615725030406	28.023285885545338	-162.6030463149838	223.4886616984447	66.46333591927737
241	1.2	-85.35962664462392	602.3315390243488	333.24639619793703	-225.7835171554572	481.6824370730896	28.160441809876726	-161.73552686497052	222.96371384966903	66.31761477733389
242	1.205	-85.18931339118733	602.15696307979	333.3322705841697	-225.31102547336377	481.11250546703286	28.293584330528383	-160.87544846613866	222.44739916035314	66.1692565298008
